<svg width="32" height="42" viewBox="0 0 32 42" fill="none" xmlns="http://www.w3.org/2000/svg">
<path d="M24.875 27.3164V22.7637C24.875 22.627 24.875 21.8066 24.875 20.3027C24.9028 18.8262 24.7014 17.0078 24.2708 14.8477C23.8403 12.6875 23.0972 10.377 22.0417 7.91602C20.9861 5.42773 19.3889 3.14453 17.25 1.06641L16 0L14.75 1.23047C12.6111 3.33594 11.0139 5.61914 9.95833 8.08008C8.90278 10.541 8.15972 12.8447 7.72917 14.9912C7.29861 17.1377 7.09722 18.9492 7.125 20.4258C7.125 21.875 7.125 22.6543 7.125 22.7637V27.4805L0 40.2363L3.20833 42L7.125 34.9863V38.5137H14.2083V42H17.7917V38.5137H24.875V34.8223L28.7917 42L32 40.0723L24.875 27.3164ZM21.3333 22.7637V34.9863H17.7917V28.0137H14.2083V34.9863H10.6667V22.5586C10.6667 22.5312 10.6667 21.9297 10.6667 20.7539C10.6389 19.5781 10.7708 18.1221 11.0625 16.3857C11.3542 14.6494 11.875 12.7695 12.625 10.7461C13.375 8.72266 14.5 6.83594 16 5.08594C17.4722 6.83594 18.5694 8.72266 19.2917 10.7461C20.0417 12.7969 20.5694 14.7041 20.875 16.4678C21.1806 18.2314 21.3333 19.7148 21.3333 20.918C21.3333 22.0938 21.3333 22.709 21.3333 22.7637ZM16 13.9863C16.9722 13.9863 17.8056 14.3281 18.5 15.0117C19.1944 15.6953 19.5417 16.5293 19.5417 17.5137C19.5417 18.4707 19.1944 19.291 18.5 19.9746C17.8056 20.6582 16.9722 21 16 21C15.0278 21 14.1944 20.6582 13.5 19.9746C12.8056 19.291 12.4583 18.4707 12.4583 17.5137C12.4583 16.5293 12.8056 15.6953 13.5 15.0117C14.1944 14.3281 15.0278 13.9863 16 13.9863Z" fill="url(#paint0_linear_1_237)"/>
<defs>
<linearGradient id="paint0_linear_1_237" x1="0.935794" y1="7.82483" x2="22.9909" y2="3.89267" gradientUnits="userSpaceOnUse">
<stop stop-color="#953FF7"/>
<stop offset="0.461" stop-color="#696BFC"/>
<stop offset="1" stop-color="#19C7FC"/>
</linearGradient>
</defs>
</svg>
