<svg width="111" height="111" viewBox="0 0 111 111" fill="none" xmlns="http://www.w3.org/2000/svg">
<g filter="url(#filter0_dd_53_1427)">
<rect x="29" y="29" width="53" height="53" rx="6" fill="url(#paint0_linear_53_1427)" shape-rendering="crispEdges"/>
<path d="M57.5038 66V56.8594H60.4361L60.8872 53.3047H57.5038V51.0391C57.5038 50.5312 57.6071 50.1178 57.8139 49.7988C58.0207 49.4798 58.4812 49.3203 59.1955 49.3203H61V46.1562C60.8496 46.1172 60.5301 46.0814 60.0414 46.0488C59.5526 46.0163 58.995 46 58.3684 46C57.7168 46 57.1153 46.1042 56.5639 46.3125C56.0251 46.5078 55.5645 46.804 55.1823 47.2012C54.8001 47.5983 54.5025 48.0898 54.2895 48.6758C54.0764 49.2487 53.9699 49.9193 53.9699 50.6875V53.3047H51V56.8594H53.9699V66H57.5038Z" fill="#C4CFDE"/>
</g>
<defs>
<filter id="filter0_dd_53_1427" x="0" y="0" width="111" height="111" filterUnits="userSpaceOnUse" color-interpolation-filters="sRGB">
<feFlood flood-opacity="0" result="BackgroundImageFix"/>
<feColorMatrix in="SourceAlpha" type="matrix" values="0 0 0 0 0 0 0 0 0 0 0 0 0 0 0 0 0 0 127 0" result="hardAlpha"/>
<feOffset dx="-10" dy="-10"/>
<feGaussianBlur stdDeviation="9.5"/>
<feComposite in2="hardAlpha" operator="out"/>
<feColorMatrix type="matrix" values="0 0 0 0 0.137255 0 0 0 0 0.152941 0 0 0 0 0.168627 0 0 0 1 0"/>
<feBlend mode="normal" in2="BackgroundImageFix" result="effect1_dropShadow_53_1427"/>
<feColorMatrix in="SourceAlpha" type="matrix" values="0 0 0 0 0 0 0 0 0 0 0 0 0 0 0 0 0 0 127 0" result="hardAlpha"/>
<feOffset dx="10" dy="10"/>
<feGaussianBlur stdDeviation="9.5"/>
<feComposite in2="hardAlpha" operator="out"/>
<feColorMatrix type="matrix" values="0 0 0 0 0.0980392 0 0 0 0 0.105882 0 0 0 0 0.121569 0 0 0 1 0"/>
<feBlend mode="normal" in2="effect1_dropShadow_53_1427" result="effect2_dropShadow_53_1427"/>
<feBlend mode="normal" in="SourceGraphic" in2="effect2_dropShadow_53_1427" result="shape"/>
</filter>
<linearGradient id="paint0_linear_53_1427" x1="42.7666" y1="-0.891612" x2="106.63" y2="28.5207" gradientUnits="userSpaceOnUse">
<stop stop-color="#1E2024"/>
<stop offset="1" stop-color="#23272B"/>
</linearGradient>
</defs>
</svg>
