<svg width="111" height="111" viewBox="0 0 111 111" fill="none" xmlns="http://www.w3.org/2000/svg">
<g filter="url(#filter0_dd_53_1430)">
<rect x="29" y="29" width="53" height="53" rx="6" fill="url(#paint0_linear_53_1430)" shape-rendering="crispEdges"/>
<g clip-path="url(#clip0_53_1430)">
<path d="M56 47.7969C57.3411 47.7969 58.2135 47.8034 58.6172 47.8164C59.0208 47.8294 59.4896 47.849 60.0234 47.875C60.5312 47.888 60.9251 47.9271 61.2051 47.9922C61.485 48.0573 61.7161 48.1224 61.8984 48.1875C62.1328 48.2786 62.3411 48.3861 62.5234 48.5098C62.7057 48.6335 62.875 48.7734 63.0312 48.9297C63.2005 49.099 63.347 49.2747 63.4707 49.457C63.5944 49.6393 63.6953 49.8411 63.7734 50.0625C63.8516 50.2578 63.9232 50.4954 63.9883 50.7754C64.0534 51.0553 64.099 51.4427 64.125 51.9375C64.138 52.4844 64.1543 52.9596 64.1738 53.3633C64.1934 53.7669 64.2031 54.6458 64.2031 56C64.2031 57.3411 64.1966 58.2135 64.1836 58.6172C64.1706 59.0208 64.151 59.4896 64.125 60.0234C64.112 60.5312 64.0729 60.9251 64.0078 61.2051C63.9427 61.485 63.8776 61.7161 63.8125 61.8984C63.7214 62.1328 63.6139 62.3411 63.4902 62.5234C63.3665 62.7057 63.2266 62.875 63.0703 63.0312C62.901 63.2005 62.7253 63.347 62.543 63.4707C62.3607 63.5944 62.1589 63.6953 61.9375 63.7734C61.7422 63.8516 61.5046 63.9232 61.2246 63.9883C60.9447 64.0534 60.5573 64.099 60.0625 64.125C59.5156 64.138 59.0404 64.1543 58.6367 64.1738C58.2331 64.1934 57.3542 64.2031 56 64.2031C54.6589 64.2031 53.7865 64.1966 53.3828 64.1836C52.9792 64.1706 52.5104 64.151 51.9766 64.125C51.4688 64.112 51.0749 64.0729 50.7949 64.0078C50.515 63.9427 50.2839 63.8776 50.1016 63.8125C49.8672 63.7214 49.6589 63.6139 49.4766 63.4902C49.2943 63.3665 49.125 63.2266 48.9688 63.0703C48.7995 62.901 48.653 62.7253 48.5293 62.543C48.4056 62.3607 48.3047 62.1589 48.2266 61.9375C48.1484 61.7422 48.0768 61.5046 48.0117 61.2246C47.9466 60.9447 47.901 60.5573 47.875 60.0625C47.862 59.5156 47.8457 59.0404 47.8262 58.6367C47.8066 58.2331 47.7969 57.3542 47.7969 56C47.7969 54.6589 47.8034 53.7865 47.8164 53.3828C47.8294 52.9792 47.849 52.5104 47.875 51.9766C47.888 51.4688 47.9271 51.0749 47.9922 50.7949C48.0573 50.515 48.1224 50.2839 48.1875 50.1016C48.2786 49.8672 48.3861 49.6589 48.5098 49.4766C48.6335 49.2943 48.7734 49.125 48.9297 48.9688C49.099 48.7995 49.2747 48.653 49.457 48.5293C49.6393 48.4056 49.8411 48.3047 50.0625 48.2266C50.2578 48.1484 50.4954 48.0768 50.7754 48.0117C51.0553 47.9466 51.4427 47.901 51.9375 47.875C52.4844 47.862 52.9596 47.8457 53.3633 47.8262C53.7669 47.8066 54.6458 47.7969 56 47.7969ZM56 46C54.6328 46 53.7409 46.0065 53.3242 46.0195C52.9076 46.0326 52.4323 46.0521 51.8984 46.0781C51.3516 46.0911 50.8861 46.1367 50.502 46.2148C50.1178 46.293 49.776 46.3906 49.4766 46.5078C49.151 46.638 48.8385 46.7975 48.5391 46.9863C48.2396 47.1751 47.9531 47.4062 47.6797 47.6797C47.4062 47.9531 47.1784 48.2363 46.9961 48.5293C46.8138 48.8223 46.651 49.138 46.5078 49.4766C46.3906 49.7891 46.2962 50.1341 46.2246 50.5117C46.153 50.8893 46.1042 51.3516 46.0781 51.8984C46.0651 52.4193 46.0488 52.8913 46.0293 53.3145C46.0098 53.7376 46 54.6328 46 56C46 57.3672 46.0065 58.2591 46.0195 58.6758C46.0326 59.0924 46.0521 59.5677 46.0781 60.1016C46.0911 60.6484 46.1367 61.1139 46.2148 61.498C46.293 61.8822 46.3906 62.224 46.5078 62.5234C46.638 62.849 46.7975 63.1615 46.9863 63.4609C47.1751 63.7604 47.4062 64.0469 47.6797 64.3203C47.9531 64.5938 48.2363 64.8216 48.5293 65.0039C48.8223 65.1862 49.138 65.349 49.4766 65.4922C49.7891 65.6094 50.1341 65.7038 50.5117 65.7754C50.8893 65.847 51.3516 65.8958 51.8984 65.9219C52.4193 65.9349 52.8913 65.9512 53.3145 65.9707C53.7376 65.9902 54.6328 66 56 66C57.3672 66 58.2591 65.9935 58.6758 65.9805C59.0924 65.9674 59.5677 65.9479 60.1016 65.9219C60.6484 65.9089 61.1139 65.8633 61.498 65.7852C61.8822 65.707 62.224 65.6094 62.5234 65.4922C62.849 65.362 63.1615 65.2025 63.4609 65.0137C63.7604 64.8249 64.0469 64.5938 64.3203 64.3203C64.5938 64.0469 64.8216 63.7637 65.0039 63.4707C65.1862 63.1777 65.349 62.862 65.4922 62.5234C65.6094 62.2109 65.7038 61.8659 65.7754 61.4883C65.847 61.1107 65.8958 60.6484 65.9219 60.1016C65.9349 59.5807 65.9512 59.1087 65.9707 58.6855C65.9902 58.2624 66 57.3672 66 56C66 54.6328 65.9935 53.7409 65.9805 53.3242C65.9674 52.9076 65.9479 52.4323 65.9219 51.8984C65.9089 51.3516 65.8633 50.8861 65.7852 50.502C65.707 50.1178 65.6094 49.776 65.4922 49.4766C65.362 49.151 65.2025 48.8385 65.0137 48.5391C64.8249 48.2396 64.5938 47.9531 64.3203 47.6797C64.0469 47.4062 63.7637 47.1784 63.4707 46.9961C63.1777 46.8138 62.862 46.651 62.5234 46.5078C62.2109 46.3906 61.8659 46.2962 61.4883 46.2246C61.1107 46.153 60.6484 46.1042 60.1016 46.0781C59.5807 46.0651 59.1087 46.0488 58.6855 46.0293C58.2624 46.0098 57.3672 46 56 46ZM56 50.8438C55.2839 50.8438 54.6133 50.9805 53.9883 51.2539C53.3633 51.5143 52.8164 51.8789 52.3477 52.3477C51.8789 52.8164 51.5143 53.3633 51.2539 53.9883C50.9805 54.6133 50.8438 55.2839 50.8438 56C50.8438 56.7161 50.9805 57.3867 51.2539 58.0117C51.5143 58.6367 51.8789 59.1836 52.3477 59.6523C52.8164 60.1211 53.3633 60.4857 53.9883 60.7461C54.6133 61.0195 55.2839 61.1562 56 61.1562C56.7161 61.1562 57.3867 61.0195 58.0117 60.7461C58.6367 60.4857 59.1836 60.1211 59.6523 59.6523C60.1211 59.1836 60.4857 58.6367 60.7461 58.0117C61.0195 57.3867 61.1562 56.7161 61.1562 56C61.1562 55.2839 61.0195 54.6133 60.7461 53.9883C60.4857 53.3633 60.1211 52.8164 59.6523 52.3477C59.1836 51.8789 58.6367 51.5143 58.0117 51.2539C57.3867 50.9805 56.7161 50.8438 56 50.8438ZM56 59.3594C55.0885 59.3594 54.3008 59.0306 53.6367 58.373C52.9727 57.7155 52.6406 56.9245 52.6406 56C52.6406 55.0885 52.9694 54.3008 53.627 53.6367C54.2845 52.9727 55.0755 52.6406 56 52.6406C56.9115 52.6406 57.6992 52.9694 58.3633 53.627C59.0273 54.2845 59.3594 55.0755 59.3594 56C59.3594 56.9115 59.0306 57.6992 58.373 58.3633C57.7155 59.0273 56.9245 59.3594 56 59.3594ZM62.5234 50.6484C62.5234 50.974 62.4128 51.2572 62.1914 51.498C61.9701 51.7389 61.6901 51.8594 61.3516 51.8594C61.026 51.8594 60.7428 51.7422 60.502 51.5078C60.2611 51.2734 60.1406 50.987 60.1406 50.6484C60.1406 50.3229 60.2578 50.0462 60.4922 49.8184C60.7266 49.5905 61.013 49.4766 61.3516 49.4766C61.6771 49.4766 61.9538 49.5872 62.1816 49.8086C62.4095 50.0299 62.5234 50.3099 62.5234 50.6484Z" fill="#C4CFDE"/>
</g>
</g>
<defs>
<filter id="filter0_dd_53_1430" x="0" y="0" width="111" height="111" filterUnits="userSpaceOnUse" color-interpolation-filters="sRGB">
<feFlood flood-opacity="0" result="BackgroundImageFix"/>
<feColorMatrix in="SourceAlpha" type="matrix" values="0 0 0 0 0 0 0 0 0 0 0 0 0 0 0 0 0 0 127 0" result="hardAlpha"/>
<feOffset dx="-10" dy="-10"/>
<feGaussianBlur stdDeviation="9.5"/>
<feComposite in2="hardAlpha" operator="out"/>
<feColorMatrix type="matrix" values="0 0 0 0 0.137255 0 0 0 0 0.152941 0 0 0 0 0.168627 0 0 0 1 0"/>
<feBlend mode="normal" in2="BackgroundImageFix" result="effect1_dropShadow_53_1430"/>
<feColorMatrix in="SourceAlpha" type="matrix" values="0 0 0 0 0 0 0 0 0 0 0 0 0 0 0 0 0 0 127 0" result="hardAlpha"/>
<feOffset dx="10" dy="10"/>
<feGaussianBlur stdDeviation="9.5"/>
<feComposite in2="hardAlpha" operator="out"/>
<feColorMatrix type="matrix" values="0 0 0 0 0.0980392 0 0 0 0 0.105882 0 0 0 0 0.121569 0 0 0 1 0"/>
<feBlend mode="normal" in2="effect1_dropShadow_53_1430" result="effect2_dropShadow_53_1430"/>
<feBlend mode="normal" in="SourceGraphic" in2="effect2_dropShadow_53_1430" result="shape"/>
</filter>
<linearGradient id="paint0_linear_53_1430" x1="42.7666" y1="-0.891612" x2="106.63" y2="28.5207" gradientUnits="userSpaceOnUse">
<stop stop-color="#1E2024"/>
<stop offset="1" stop-color="#23272B"/>
</linearGradient>
<clipPath id="clip0_53_1430">
<rect width="20" height="20" fill="white" transform="matrix(1 0 0 -1 46 66)"/>
</clipPath>
</defs>
</svg>
