<svg width="28" height="42" viewBox="0 0 28 42" fill="none" xmlns="http://www.w3.org/2000/svg">
<path d="M24.5103 17.5137V10.5C24.5103 9.05078 24.2366 7.69727 23.6891 6.43945C23.1417 5.1543 22.3891 4.0332 21.4311 3.07617C20.4731 2.11914 19.3509 1.36719 18.0645 0.820312C16.8055 0.273438 15.4506 0 14 0C12.5494 0 11.1945 0.273438 9.93548 0.820312C8.64907 1.36719 7.52688 2.11914 6.56892 3.07617C5.61095 4.0332 4.85826 5.1543 4.31085 6.43945C3.76344 7.69727 3.48974 9.05078 3.48974 10.5V17.5137H0V42H28V17.5137H24.5103ZM6.97947 10.5C6.97947 8.58594 7.67058 6.93848 9.05279 5.55762C10.435 4.17676 12.0841 3.48633 14 3.48633C15.9159 3.48633 17.565 4.17676 18.9472 5.55762C20.3294 6.93848 21.0205 8.58594 21.0205 10.5V17.5137H6.97947V10.5ZM24.5103 38.5137H3.48974V21H24.5103V38.5137Z" fill="url(#paint0_linear_32_183)"/>
<defs>
<linearGradient id="paint0_linear_32_183" x1="0.81882" y1="7.82483" x2="20.2573" y2="4.79237" gradientUnits="userSpaceOnUse">
<stop stop-color="#953FF7"/>
<stop offset="0.461" stop-color="#696BFC"/>
<stop offset="1" stop-color="#19C7FC"/>
</linearGradient>
</defs>
</svg>
