<svg width="40" height="39" viewBox="0 0 40 39" fill="none" xmlns="http://www.w3.org/2000/svg">
<path d="M36.5341 30.1534H9.05199L3.83282 3.57189H0V0H6.6055L7.99184 7.10224H40L37.9205 23.0511H11.1315L11.8247 26.5815H36.5341V30.1534ZM10.4383 19.5208H34.7808L36.0041 10.6326H8.68501L10.4383 19.5208ZM13.9042 31.8978C12.9528 31.8978 12.1373 32.2439 11.4577 32.9361C10.7781 33.6283 10.4383 34.4728 10.4383 35.4696C10.4383 36.4388 10.7781 37.2694 11.4577 37.9617C12.1373 38.6539 12.9528 39 13.9042 39C14.8828 39 15.7119 38.6539 16.3914 37.9617C17.071 37.2694 17.4108 36.4388 17.4108 35.4696C17.4108 34.4728 17.071 33.6283 16.3914 32.9361C15.7119 32.2439 14.8828 31.8978 13.9042 31.8978ZM31.315 31.8978C30.3636 31.8978 29.5481 32.2439 28.8685 32.9361C28.1889 33.6283 27.8491 34.4728 27.8491 35.4696C27.8491 36.4388 28.1889 37.2694 28.8685 37.9617C29.5481 38.6539 30.3636 39 31.315 39C32.2664 39 33.0819 38.6539 33.7615 37.9617C34.441 37.2694 34.7808 36.4388 34.7808 35.4696C34.7808 34.4728 34.441 33.6283 33.7615 32.9361C33.0819 32.2439 32.2664 31.8978 31.315 31.8978Z" fill="url(#paint0_linear_1_201)"/>
<defs>
<linearGradient id="paint0_linear_1_201" x1="1.16974" y1="7.26591" x2="28.0656" y2="0.810799" gradientUnits="userSpaceOnUse">
<stop stop-color="#953FF7"/>
<stop offset="0.461" stop-color="#696BFC"/>
<stop offset="1" stop-color="#19C7FC"/>
</linearGradient>
</defs>
</svg>
