<svg width="33" height="42" viewBox="0 0 33 42" fill="none" xmlns="http://www.w3.org/2000/svg">
<path d="M7.08589 10.5H3.60368C3.60368 9.05078 3.88712 7.69727 4.45399 6.43945C4.99387 5.1543 5.72945 4.0332 6.66074 3.07617C7.59202 2.11914 8.69203 1.36719 9.96074 0.820312C11.2294 0.273438 12.5656 0 13.9693 0C15.4 0 16.7497 0.273438 18.0184 0.820312C19.2601 1.36719 20.3534 2.11914 21.2982 3.07617C22.2429 4.0332 22.9853 5.1543 23.5252 6.43945C24.065 7.69727 24.335 9.05078 24.335 10.5H20.8933C20.8933 8.58594 20.2184 6.93848 18.8687 5.55762C17.519 4.17676 15.8859 3.48633 13.9693 3.48633C12.0798 3.48633 10.4601 4.17676 9.11043 5.55762C7.76074 6.93848 7.08589 8.58594 7.08589 10.5ZM33 26.6191V42H11.5804L1.53865 31.8691C1.02577 31.3223 0.641104 30.7139 0.384663 30.0439C0.128221 29.374 0 28.6973 0 28.0137C0 27.3027 0.128221 26.6123 0.384663 25.9424C0.641104 25.2725 1.02577 24.6777 1.53865 24.1582C2.59141 23.0918 3.80614 22.5449 5.18282 22.5176C6.55951 22.4902 7.76074 22.9141 8.7865 23.7891V10.5C8.7865 9.02344 9.28589 7.7793 10.2847 6.76758C11.2834 5.75586 12.5117 5.25 13.9693 5.25C15.454 5.25 16.689 5.75586 17.6742 6.76758C18.6595 7.7793 19.1521 9.02344 19.1521 10.5V19.6055L29.7202 22.2305C30.665 22.4766 31.4479 23.0029 32.0687 23.8096C32.6896 24.6162 33 25.5527 33 26.6191ZM29.5178 26.6191C29.5178 26.4277 29.4503 26.25 29.3153 26.0859C29.1804 25.9219 29.0184 25.7988 28.8294 25.7168L15.7104 22.3945V10.5C15.7104 9.98047 15.5552 9.55664 15.2448 9.22852C14.9344 8.90039 14.5092 8.73633 13.9693 8.73633C13.4564 8.73633 13.0448 8.90039 12.7344 9.22852C12.4239 9.55664 12.2687 9.98047 12.2687 10.5V32.1973L6.72147 26.6191C6.37055 26.2637 5.9319 26.0859 5.40552 26.0859C4.87914 26.0859 4.4 26.2637 3.9681 26.6191C3.77914 26.7832 3.64417 26.9883 3.56319 27.2344C3.48221 27.4805 3.44172 27.7402 3.44172 28.0137C3.44172 28.2598 3.48221 28.5059 3.56319 28.752C3.64417 28.998 3.77914 29.2168 3.9681 29.4082L12.9571 38.5137H29.5178V26.6191Z" fill="url(#paint0_linear_1_207)"/>
<defs>
<linearGradient id="paint0_linear_1_207" x1="0.965038" y1="7.82483" x2="23.6649" y2="3.65123" gradientUnits="userSpaceOnUse">
<stop stop-color="#953FF7"/>
<stop offset="0.461" stop-color="#696BFC"/>
<stop offset="1" stop-color="#19C7FC"/>
</linearGradient>
</defs>
</svg>
