<svg width="41" height="41" viewBox="0 0 41 41" fill="none" xmlns="http://www.w3.org/2000/svg">
<path d="M41 38.5668L24.7379 22.3046C25.6841 21.1151 26.4141 19.7971 26.9278 18.3506C27.4415 16.9042 27.6983 15.397 27.6983 13.8289C27.6983 11.9364 27.3333 10.152 26.6034 8.47577C25.8734 6.79954 24.8798 5.33284 23.6227 4.07566C22.3655 2.8185 20.8988 1.82492 19.2226 1.09496C17.5463 0.364983 15.7484 0 13.8289 0C11.9364 0 10.152 0.364983 8.47577 1.09496C6.79954 1.82492 5.33284 2.8185 4.07567 4.07566C2.8185 5.33284 1.82493 6.79954 1.09496 8.47577C0.364985 10.152 0 11.9364 0 13.8289C0 15.7484 0.364985 17.5463 1.09496 19.2226C1.82493 20.8988 2.8185 22.3655 4.07567 23.6227C5.33284 24.8798 6.79954 25.8734 8.47577 26.6034C10.152 27.3333 11.9364 27.6983 13.8289 27.6983C15.397 27.6983 16.9042 27.4415 18.3506 26.9278C19.7971 26.4141 21.1151 25.6841 22.3046 24.7379L38.5668 41L41 38.5668ZM13.8289 24.2107C12.423 24.2107 11.0847 23.9403 9.81405 23.3996C8.54336 22.8589 7.44164 22.1154 6.5089 21.1691C5.57616 20.2229 4.83943 19.1279 4.29871 17.8843C3.73096 16.6136 3.44708 15.2618 3.44708 13.8289C3.44708 12.423 3.73096 11.0847 4.29871 9.81404C4.83943 8.54335 5.57616 7.44164 6.5089 6.5089C7.44164 5.57616 8.54336 4.83943 9.81405 4.29871C11.0847 3.73096 12.423 3.44708 13.8289 3.44708C15.2618 3.44708 16.6136 3.73096 17.8843 4.29871C19.1279 4.83943 20.2229 5.57616 21.1691 6.5089C22.1154 7.44164 22.8589 8.54335 23.3996 9.81404C23.9403 11.0847 24.2107 12.423 24.2107 13.8289C24.2107 15.2618 23.9403 16.6136 23.3996 17.8843C22.8589 19.1279 22.1154 20.2229 21.1691 21.1691C20.2229 22.1154 19.1279 22.8589 17.8843 23.3996C16.6136 23.9403 15.2618 24.2107 13.8289 24.2107Z" fill="url(#paint0_linear_1_195)"/>
<defs>
<linearGradient id="paint0_linear_1_195" x1="1.19899" y1="7.63852" x2="28.8416" y2="1.17005" gradientUnits="userSpaceOnUse">
<stop stop-color="#953FF7"/>
<stop offset="0.461" stop-color="#696BFC"/>
<stop offset="1" stop-color="#19C7FC"/>
</linearGradient>
</defs>
</svg>
