<svg width="111" height="111" viewBox="0 0 111 111" fill="none" xmlns="http://www.w3.org/2000/svg">
<g filter="url(#filter0_dd_53_1424)">
<rect x="29" y="29" width="53" height="53" rx="6" fill="url(#paint0_linear_53_1424)" shape-rendering="crispEdges"/>
<path d="M63.9688 52C63.9688 52.0769 63.9688 52.1603 63.9688 52.25C63.9688 52.3397 63.9688 52.4231 63.9688 52.5C63.9688 53.8333 63.7148 55.1859 63.207 56.5577C62.6992 57.9167 61.9505 59.1474 60.9609 60.25C59.9714 61.3526 58.7474 62.2564 57.2891 62.9615C55.8438 63.6538 54.1771 64 52.2891 64C51.7161 64 51.1497 63.9615 50.5898 63.8846C50.0299 63.8077 49.4863 63.6923 48.959 63.5385C48.4316 63.3846 47.9206 63.1923 47.4258 62.9615C46.931 62.7436 46.4557 62.4872 46 62.1923C46.1562 62.2051 46.319 62.2147 46.4883 62.2212C46.6576 62.2276 46.8203 62.2308 46.9766 62.2308C47.9271 62.2308 48.8418 62.0833 49.7207 61.7885C50.5996 61.4936 51.3906 61.0641 52.0938 60.5C51.1953 60.5 50.3945 60.234 49.6914 59.7019C48.9883 59.1699 48.5 58.5 48.2266 57.6923C48.3568 57.7308 48.4837 57.7532 48.6074 57.7596C48.7311 57.766 48.8646 57.7692 49.0078 57.7692C49.2031 57.7692 49.3887 57.7596 49.5645 57.7404C49.7402 57.7212 49.9193 57.6923 50.1016 57.6538C49.1641 57.4615 48.3828 56.9936 47.7578 56.25C47.1328 55.5064 46.8203 54.6538 46.8203 53.6923C46.8203 53.6795 46.8203 53.6699 46.8203 53.6635C46.8203 53.6571 46.8203 53.641 46.8203 53.6154C47.0938 53.7692 47.3835 53.891 47.6895 53.9808C47.9954 54.0705 48.3177 54.1154 48.6562 54.1154C48.1094 53.7692 47.6667 53.2981 47.3281 52.7019C46.9896 52.1058 46.8203 51.4615 46.8203 50.7692C46.8203 50.4103 46.8724 50.0577 46.9766 49.7115C47.0807 49.3654 47.224 49.0385 47.4062 48.7308C47.901 49.3462 48.4609 49.9038 49.0859 50.4038C49.7109 50.9038 50.3815 51.3365 51.0977 51.7019C51.8138 52.0673 52.569 52.359 53.3633 52.5769C54.1706 52.7949 54.9974 52.9231 55.8438 52.9615C55.8047 52.8077 55.7754 52.6538 55.7559 52.5C55.7363 52.3462 55.7266 52.1923 55.7266 52.0385C55.7266 51.4872 55.8307 50.9615 56.0391 50.4615C56.2604 49.9744 56.5566 49.5481 56.9277 49.1827C57.2988 48.8173 57.7318 48.5321 58.2266 48.3269C58.7214 48.109 59.2552 48 59.8281 48C60.4271 48 60.9837 48.1154 61.498 48.3462C62.0124 48.5769 62.4583 48.8846 62.8359 49.2692C63.3047 49.1795 63.7604 49.0545 64.2031 48.8942C64.6458 48.734 65.0625 48.5385 65.4531 48.3077C65.2969 48.7692 65.0625 49.1923 64.75 49.5769C64.4375 49.9615 64.0729 50.2821 63.6562 50.5385C64.0599 50.4872 64.457 50.4103 64.8477 50.3077C65.2383 50.2051 65.6224 50.0641 66 49.8846C65.7266 50.2821 65.4173 50.6603 65.0723 51.0192C64.7272 51.3782 64.3594 51.7051 63.9688 52Z" fill="#C4CFDE"/>
</g>
<defs>
<filter id="filter0_dd_53_1424" x="0" y="0" width="111" height="111" filterUnits="userSpaceOnUse" color-interpolation-filters="sRGB">
<feFlood flood-opacity="0" result="BackgroundImageFix"/>
<feColorMatrix in="SourceAlpha" type="matrix" values="0 0 0 0 0 0 0 0 0 0 0 0 0 0 0 0 0 0 127 0" result="hardAlpha"/>
<feOffset dx="-10" dy="-10"/>
<feGaussianBlur stdDeviation="9.5"/>
<feComposite in2="hardAlpha" operator="out"/>
<feColorMatrix type="matrix" values="0 0 0 0 0.137255 0 0 0 0 0.152941 0 0 0 0 0.168627 0 0 0 1 0"/>
<feBlend mode="normal" in2="BackgroundImageFix" result="effect1_dropShadow_53_1424"/>
<feColorMatrix in="SourceAlpha" type="matrix" values="0 0 0 0 0 0 0 0 0 0 0 0 0 0 0 0 0 0 127 0" result="hardAlpha"/>
<feOffset dx="10" dy="10"/>
<feGaussianBlur stdDeviation="9.5"/>
<feComposite in2="hardAlpha" operator="out"/>
<feColorMatrix type="matrix" values="0 0 0 0 0.0980392 0 0 0 0 0.105882 0 0 0 0 0.121569 0 0 0 1 0"/>
<feBlend mode="normal" in2="effect1_dropShadow_53_1424" result="effect2_dropShadow_53_1424"/>
<feBlend mode="normal" in="SourceGraphic" in2="effect2_dropShadow_53_1424" result="shape"/>
</filter>
<linearGradient id="paint0_linear_53_1424" x1="42.7666" y1="-0.891612" x2="106.63" y2="28.5207" gradientUnits="userSpaceOnUse">
<stop stop-color="#1E2024"/>
<stop offset="1" stop-color="#23272B"/>
</linearGradient>
</defs>
</svg>
