<svg width="38" height="45" viewBox="0 0 38 45" fill="none" xmlns="http://www.w3.org/2000/svg">
<path d="M26.0304 20.083C27.3653 19.0283 28.4258 17.7393 29.2119 16.2158C29.998 14.6924 30.3911 13.0371 30.3911 11.25C30.3911 9.69727 30.0945 8.24707 29.5012 6.89941C28.9079 5.52246 28.0921 4.32129 27.0539 3.2959C26.0156 2.27051 24.7994 1.46484 23.4052 0.878906C22.0406 0.292969 20.5722 0 19 0C17.4278 0 15.9594 0.292969 14.5948 0.878906C13.2006 1.46484 11.9844 2.27051 10.9461 3.2959C9.90788 4.32129 9.09212 5.52246 8.49883 6.89941C7.90554 8.24707 7.6089 9.69727 7.6089 11.25C7.6089 13.0371 8.00195 14.6924 8.78806 16.2158C9.57416 17.7393 10.6347 19.0283 11.9696 20.083C10.2194 20.7861 8.61749 21.709 7.16393 22.8516C5.68072 24.0234 4.41257 25.3638 3.35948 26.8726C2.3064 28.3813 1.48322 30.0439 0.88993 31.8604C0.296643 33.6475 0 35.5225 0 37.4854V45H38V37.4854C38 35.5225 37.7034 33.6475 37.1101 31.8604C36.5168 30.0439 35.6936 28.3813 34.6405 26.8726C33.5874 25.3638 32.3193 24.0234 30.8361 22.8516C29.3825 21.709 27.7806 20.7861 26.0304 20.083ZM11.3911 11.25C11.3911 9.19922 12.1401 7.43408 13.6382 5.95459C15.1362 4.4751 16.9235 3.73535 19 3.73535C21.0765 3.73535 22.8638 4.4751 24.3618 5.95459C25.8599 7.43408 26.6089 9.19922 26.6089 11.25C26.6089 13.3008 25.8599 15.0659 24.3618 16.5454C22.8638 18.0249 21.0765 18.7646 19 18.7646C16.9235 18.7646 15.1362 18.0249 13.6382 16.5454C12.1401 15.0659 11.3911 13.3008 11.3911 11.25ZM34.1733 41.2646H3.8267V37.4854C3.8267 35.4346 4.22717 33.501 5.0281 31.6846C5.82904 29.8682 6.91179 28.2788 8.27635 26.9165C9.64091 25.5542 11.2428 24.4775 13.082 23.6865C14.9508 22.8955 16.9235 22.5 19 22.5C21.0765 22.5 23.0492 22.8955 24.918 23.6865C26.7572 24.4775 28.3591 25.5542 29.7237 26.9165C31.0882 28.2788 32.171 29.8682 32.9719 31.6846C33.7728 33.501 34.1733 35.4346 34.1733 37.4854V41.2646Z" fill="url(#paint0_linear_1_173)"/>
<defs>
<linearGradient id="paint0_linear_1_173" x1="1.11126" y1="8.38374" x2="27.1186" y2="3.24461" gradientUnits="userSpaceOnUse">
<stop stop-color="#953FF7"/>
<stop offset="0.461" stop-color="#696BFC"/>
<stop offset="1" stop-color="#19C7FC"/>
</linearGradient>
</defs>
</svg>
